Coordinates
version=1
nRows=19
nColumns=36
inDegrees=yes

Units are S.I. units (second, meters, Newtons, ...)
If the header above contains a line with 'inDegrees', this indicates whether rotational values are in degrees (yes) or radians (no).

endheader
time	pelvis_tilt	pelvis_list	pelvis_rotation	pelvis_tx	pelvis_ty	pelvis_tz	hip_flexion_r	hip_adduction_r	hip_rotation_r	knee_angle_r	knee_angle_r_beta	ankle_angle_r	subtalar_angle_r	mtp_angle_r	hip_flexion_l	hip_adduction_l	hip_rotation_l	knee_angle_l	knee_angle_l_beta	ankle_angle_l	subtalar_angle_l	mtp_angle_l	lumbar_extension	lumbar_bending	lumbar_rotation	arm_flex_r	arm_add_r	arm_rot_r	elbow_flex_r	pro_sup_r	arm_flex_l	arm_add_l	arm_rot_l	elbow_flex_l	pro_sup_l
      0.93333330	     -0.30628525	     -1.68192372	      7.93956105	      0.26070157	      1.29262679	      0.21428135	     -3.54384698	      0.37333771	      0.65276726	     27.67502130	      0.48302024	      7.96699431	    -13.98248465	     -7.50013153	     -1.48446852	     -1.67947535	     -0.20180301	     34.14588182	      0.59595806	     15.22002430	     -6.48802007	     -7.50013153	    -14.13879448	     -1.63760210	      0.26191728	     53.64198956	      6.90399486	     62.60869787	    126.47558920	     92.79341496	     63.32663403	      4.07739946	     64.85635729	    120.86865380	     96.18957736
      0.95000000	     -0.54275219	     -1.91515276	      7.97032275	      0.26792047	      1.30376195	      0.21055260	     -2.43001530	      0.35337198	     -0.38383560	     29.82865198	      0.52060819	      4.11315577	    -15.62847596	     -7.50012231	     -1.21099248	     -2.25273290	     -0.87096120	     35.11400855	      0.61285506	     14.53080829	     -6.05500632	     -7.50012231	    -13.45220359	     -1.33000122	     -0.28463754	     54.62404735	      6.60011753	     63.75138426	    126.04763634	     92.25910465	     63.80973687	      3.74343480	     65.15994897	    120.62359229	     96.12367755
      0.96666670	     -1.03414729	     -2.11309929	      8.02481380	      0.27579997	      1.31155962	      0.20725950	     -0.48674955	      0.29826033	     -1.08105417	     32.21378359	      0.56223659	      0.94471487	    -17.22458424	     -7.50011826	      0.27460057	     -2.92330238	     -1.48652128	     37.08564431	      0.64726660	     13.63383509	     -5.67084808	     -7.50011826	    -13.10107908	     -1.21139891	     -0.31996342	     54.98309358	      5.77149711	     64.54787521	    125.21281219	     92.19519763	     64.25095527	      3.37687617	     66.69708069	    119.86927753	     96.32784745
      0.98333330	     -1.88482679	     -2.35743347	      7.90281033	      0.28546052	      1.31248544	      0.20998655	      2.47418393	      0.32830103	     -1.40899545	     35.30175898	      0.61613193	     -1.44591438	    -18.91408565	     -7.50009748	      2.90231794	     -3.82147258	     -2.30892651	     40.03353063	      0.69871692	     12.18583842	     -5.61689255	     -7.50009748	    -12.64934711	     -1.35614178	      0.01871991	     54.84737771	      5.30244443	     64.50436625	    124.39360751	     90.18736384	     64.75005947	      3.19999588	     67.38774241	    118.32060828	     95.25304048
      1.00000000	     -2.87071801	     -2.55311429	      7.74572897	      0.29486019	      1.31769131	      0.20698532	      6.20295476	      0.30480577	     -1.60955031	     38.39539988	      0.67012615	     -2.11820147	    -19.70247465	     -7.50008731	      6.16889373	     -4.72958103	     -3.06007816	     42.85688879	      0.74799382	     11.21597766	     -5.25816818	     -7.50008731	    -12.46607024	     -1.46737828	     -0.10137826	     54.62534799	      5.05095616	     64.52013213	    123.21090185	     88.85092161	     65.22291398	      2.18935795	     67.70816606	    117.75519827	     93.80973488
      1.01666670	     -3.70823851	     -2.42742440	      7.35832817	      0.31714863	      1.30522870	      0.19874621	      9.71458844	     -0.22831477	     -1.89534635	     40.61819638	      0.70892126	     -1.26533203	    -19.08444419	     -7.50007994	      9.17424410	     -5.13209460	     -3.48177519	     45.08175841	      0.78682512	     11.29410753	     -4.39066138	     -7.50007994	    -11.85496877	     -1.66560058	     -0.15044513	     54.46402578	      4.89112132	     63.38843891	    122.14525511	     88.07690160	     65.40736693	      1.86597800	     67.69097663	    118.16313400	     92.91931034
      1.03333330	     -4.60940767	     -2.22569384	      7.10490904	      0.33925012	      1.30175133	      0.19600380	     13.32305637	     -0.98930003	     -2.31296032	     42.70581316	      0.74535705	     -0.02766485	    -17.82462534	     -7.50005924	     12.45412997	     -5.52552401	     -3.95652334	     47.28320899	      0.82524768	     11.77186037	     -3.52088552	     -7.50005924	    -11.16486515	     -2.08543227	     -0.48200769	     53.29709607	      5.34889652	     63.30408026	    121.94595510	     92.30069950	     63.71700998	      1.38528713	     67.75543689	    118.55930273	     96.85090794
      1.05000000	     -5.88602076	     -1.95621803	      7.49204046	      0.34882245	      1.28857331	      0.19323621	     17.92272167	     -2.03764081	     -2.90592415	     44.61492583	      0.77867735	      0.81462976	    -15.89292255	     -7.50005412	     16.78277383	     -5.89072150	     -4.03975400	     49.62473872	      0.86611508	     11.65345898	     -2.76940529	     -7.50005412	    -10.37452815	     -2.84804508	     -0.99013720	     51.88912939	      5.97076898	     63.65535602	    122.83870732	     91.35210150	     63.00379821	      1.40658048	     68.78923229	    119.15693638	     95.73820020
      1.06666670	     -6.79673849	     -1.59820535	      8.01802212	      0.36486539	      1.27154965	      0.19356595	     21.91084856	     -3.20308965	     -3.49524903	     45.85333180	      0.80029161	      2.61813400	    -13.68305867	     -7.50005018	     21.20193146	     -6.22470988	     -3.96419663	     52.36386786	      0.91392190	     12.26098905	     -2.62858675	     -7.50005018	    -10.01781156	     -3.65581599	     -1.81807783	     51.19813010	      6.64218847	     63.03846932	    122.87264877	     90.51389905	     63.82034086	      0.81543502	     69.00488136	    119.36925685	     94.76041990
      1.08333330	     -7.34683880	     -1.32803487	      8.75741808	      0.37451992	      1.26005559	      0.19631473	     25.52769448	     -4.26031349	     -4.33609653	     45.91888130	      0.80143567	      4.64543965	    -10.88037988	     -7.50004681	     25.62365913	     -6.70510332	     -3.74720647	     54.05934235	      0.94351352	     10.84331594	     -3.31933499	     -7.50004681	    -10.64740561	     -4.29364193	     -2.46795038	     50.88275389	      7.10392157	     63.40411697	    122.80077513	     90.10877405	     64.46624416	      0.24352082	     69.86110123	    119.81817306	     94.11964188
      1.10000000	     -7.27111936	     -1.23525608	      8.56283930	      0.40566720	      1.24989822	      0.18124402	     28.11849590	     -5.41936859	     -5.15836295	     45.43970711	      0.79307250	      4.84915332	     -8.63086840	     -7.50004453	     27.90556188	     -7.37847217	     -4.47190460	     53.51745099	      0.93405573	      8.59489824	     -4.52849173	     -7.50004453	    -11.56791856	     -4.14759398	     -1.96947458	     50.00862564	      6.75698713	     65.05809430	    123.36553207	     90.17441363	     63.50076954	      0.69021287	     71.61002561	    120.42964788	     93.90483021
      1.11666670	     -6.95152222	     -0.99088478	      8.76989187	      0.42565955	      1.23724831	      0.17834176	     29.01361098	     -6.58856231	     -6.22657642	     42.22893479	      0.73703395	      2.20472416	     -6.06546544	     -7.50004179	     28.69814675	     -7.50554534	     -5.17903681	     51.01259137	      0.89033768	      5.17453498	     -5.99675306	     -7.50004179	    -12.68463759	     -4.24440592	     -1.39275605	     48.64290526	      5.93597312	     65.63891861	    123.47838969	     90.96958097	     61.82140585	      1.43164218	     71.88935651	    118.47627481	     94.25641886
      1.13333330	     -7.00880048	     -0.82286052	      8.84954619	      0.43361470	      1.21095101	      0.17649615	     30.31339298	     -7.63578084	     -7.23485715	     39.07629078	      0.68200993	     -1.08164941	     -3.63163746	     -7.50004031	     30.75831363	     -7.53287714	     -5.46147394	     48.63084592	      0.84876838	      2.46232609	     -7.05593802	     -7.50004031	    -13.55168286	     -4.10089522	     -1.05961155	     48.49660564	      5.88959911	     65.21277923	    122.96048215	     91.26006868	     61.82767699	      1.44093919	     71.87197163	    118.50382026	     94.24634839
      1.15000000	     -7.10489333	     -0.60631238	      9.15201990	      0.44164783	      1.18263260	      0.17940634	     31.16876214	     -8.49335416	     -8.17421162	     35.67456833	      0.62263868	     -4.24320675	     -1.42546116	     -7.50003136	     33.30564976	     -7.46272866	     -5.77971291	     46.12148118	      0.80497170	     -0.10633776	     -8.53690134	     -7.50003136	    -14.67852924	     -4.21842656	     -1.04230016	     48.33934908	      5.77381801	     63.26224494	    122.62758350	     95.79088052	     63.02392070	      1.23048565	     71.81246426	    118.57108795	     96.40754030
      1.16666670	     -6.59660340	     -0.37443205	      8.84958541	      0.46533759	      1.16034572	      0.17464486	     31.18907239	     -9.14803993	     -9.78405192	     31.11101872	      0.54298971	     -8.20862015	      0.52384620	     -7.50003055	     33.48289233	     -7.59889443	     -6.94985010	     41.01264415	      0.71580568	     -4.81211745	     -9.53403215	     -7.50003055	    -16.20994134	     -4.33189828	     -0.40323874	     48.05918036	      5.78061926	     62.61875859	    122.71128702	     95.73629377	     62.78204241	      0.82396370	     71.96535054	    118.35797754	     96.47278986
      1.18333330	     -5.95612077	     -0.28616219	      8.53303440	      0.48298152	      1.13156671	      0.16766635	     30.86701457	     -9.53218726	    -11.23644413	     27.02524612	      0.47167953	    -11.27146958	      2.26792948	     -7.50003068	     32.97222606	     -7.73538244	     -7.92227146	     35.57951883	      0.62097975	    -11.36663410	    -10.85094733	     -7.50003068	    -17.50890403	     -4.05374472	      0.59158294	     47.77674473	      5.54223496	     62.55295716	    123.14492537	     96.36320551	     61.97522785	      1.06407077	     70.98144896	    118.48826790	     97.03778062
      1.20000000	     -5.25132839	     -0.27813539	      8.63431183	      0.48847795	      1.10560127	      0.16566338	     31.11938686	     -9.84071097	    -12.10063271	     24.28144055	      0.42379108	    -13.32226173	      4.02594178	     -7.50003098	     33.11459712	     -7.59859106	     -7.88285546	     31.08421570	      0.54252191	    -16.06312802	    -10.88021649	     -7.50003098	    -19.25893603	     -3.44339232	      0.94867019	     47.83873013	      5.35798995	     61.90911319	    122.07619202	     97.00702149	     62.31742189	      0.99774515	     70.45789767	    118.33787402	     97.73350882
      1.21666670	     -4.81711860	     -0.52068251	      8.86099666	      0.49999966	      1.06836778	      0.16632428	     32.40097190	     -9.91422408	    -12.48820675	     22.78503088	      0.39767381	    -14.47219785	      5.21113445	     -7.50003040	     34.38342163	     -7.73272508	     -6.71788835	     29.13891031	      0.50856993	    -19.10616379	    -11.74343251	     -7.50003040	    -21.01957580	     -2.75478756	      1.35118772	     48.38646377	      5.56675184	     62.30356536	    122.08768969	     97.02564024	     62.85618066	      1.17164125	     71.25362309	    119.00663240	     97.82555284
      1.23333330	     -4.30022787	     -0.52082784	      9.10653959	      0.50601874	      1.02636551	      0.16437910	     34.42034970	    -10.20934899	    -11.94186917	     23.64805433	      0.41273641	    -14.92355358	      5.33686723	     -7.50002892	     36.17332462	     -7.63397883	     -5.41044749	     29.54194308	      0.51560417	    -19.54929482	    -11.61408023	     -7.50002892	    -22.95373332	     -2.18756673	      1.52939714	     50.20193147	      5.72808046	     62.14739455	    122.08158619	     96.06825197	     64.09376001	      1.24199666	     70.01679009	    118.04379410	     96.88794761
